<svg width="150" height="33" viewBox="0 0 150 33" fill="none" xmlns="http://www.w3.org/2000/svg">
<rect width="150" height="33" fill="#3D3D3E"/>
<g clip-path="url(#clip0_238_475)">
<rect width="1440" height="6759" transform="translate(-131 -23)" fill="white"/>
<rect x="-131" y="-23" width="1440" height="630" fill="url(#paint0_linear_238_475)"/>
<rect x="-131" y="-23" width="1440" height="80" fill="white"/>
<g clip-path="url(#clip1_238_475)">
<path d="M94.9435 30.1712V15.4186C94.9435 13.6794 93.3002 12.3226 88.6932 12.3226H86.3917C81.8286 12.3226 80.4286 13.6794 80.4286 15.4186V30.1712C80.4286 31.783 79.567 32.1653 77.796 32.1653C76.025 32.1653 75.2033 31.7007 75.2033 30.1712V15.4186C75.2033 13.6794 73.8033 12.3226 69.2402 12.3226H66.9387C62.3317 12.3226 60.6884 13.6794 60.6884 15.4186V30.1712C60.6884 31.783 59.8228 32.1653 58.0558 32.1653C56.2888 32.1653 55.4631 31.783 55.4631 30.1712V15.4186C55.4631 10.46 59.3681 8.04236 66.0333 8.04236H70.1057C73.5201 8.04236 76.1527 8.76189 77.796 10.164C79.4832 8.76601 82.0719 8.04236 85.5262 8.04236H89.5986C96.2598 8.04236 100.169 10.46 100.169 15.4186V30.1712C100.169 31.783 99.3032 32.1653 97.5761 32.1653C95.849 32.1653 94.9435 31.783 94.9435 30.1712Z" fill="black"/>
<path d="M116.539 31.9926C108.808 31.9926 104.899 29.5339 104.899 24.6164V24.4396C104.899 19.4809 108.804 17.0633 116.539 17.0633H134.141V17.0222C134.141 15.4104 132.166 12.3226 127.559 12.3226H106.419C105.187 12.3226 104.899 11.603 104.899 10.201C104.899 8.79889 105.187 8.03824 106.419 8.03824H127.723C135.453 8.03824 139.362 12.5281 139.362 17.4868V24.6122C139.362 29.5298 135.453 31.9885 127.723 31.9885H116.539V31.9926ZM134.141 24.6164V21.179H116.702C112.095 21.179 110.121 22.5359 110.121 24.2751V24.6205C110.121 26.3145 112.095 27.7165 116.702 27.7165H127.559C132.166 27.7165 134.141 26.3186 134.141 24.6205V24.6164Z" fill="black"/>
<path d="M149.729 30.1712C149.729 31.783 148.867 32.1653 147.096 32.1653C145.325 32.1653 144.503 31.783 144.503 30.1712V10.1599C144.503 8.54809 145.369 8.16571 147.096 8.16571C148.823 8.16571 149.729 8.54809 149.729 10.1599V30.1712Z" fill="black"/>
<path d="M147.116 5.94543C148.709 5.94543 150 4.6145 150 2.97271C150 1.33093 148.709 0 147.116 0C145.524 0 144.232 1.33093 144.232 2.97271C144.232 4.6145 145.524 5.94543 147.116 5.94543Z" fill="black"/>
<path fill-rule="evenodd" clip-rule="evenodd" d="M29.7959 21.9931C32.7675 25.8581 36.1978 29.3077 40.2823 31.38C44.8852 33.7072 45.328 28.8514 44.5901 25.3565C43.9479 22.281 42.7752 19.3494 41.1598 16.6891C38.9301 13.038 36.3893 11.7881 33.657 16.1012C32.584 17.7993 31.188 19.9826 29.7959 21.9931Z" fill="url(#paint1_linear_238_475)"/>
<path fill-rule="evenodd" clip-rule="evenodd" d="M27.5781 25.0152C28.2881 24.123 29.0419 23.0745 29.7958 21.9972C25.137 15.9038 21.6508 8.75777 18.6672 4.30076C15.4603 -0.513968 13.1309 -0.472852 10.0516 3.77036C6.92843 8.08346 3.94486 13.5437 2.01831 18.675C7.05208 7.64763 11.4995 13.3998 15.6717 19.6824C16.9282 21.5655 18.1527 23.5062 19.3653 25.0563C22.4605 29.0076 24.5387 28.7814 27.5781 25.0111V25.0152Z" fill="url(#paint2_linear_238_475)"/>
<path fill-rule="evenodd" clip-rule="evenodd" d="M10.2949 27.6754C10.3627 27.5973 10.4305 27.5192 10.4943 27.441C10.5541 27.367 10.614 27.293 10.6738 27.219C10.8333 27.0258 10.9929 26.8284 11.1485 26.631C11.1923 26.5776 11.2322 26.5241 11.2761 26.4707C12.4807 24.9329 13.5975 23.276 14.5508 21.6724C14.5907 21.6066 14.6266 21.5408 14.6665 21.4751C14.8021 21.2448 14.9338 21.0187 15.0614 20.7884C15.1093 20.7021 15.1611 20.6157 15.209 20.5294C15.3685 20.2416 15.5241 19.9579 15.6677 19.6783C12.4887 12.635 6.99221 7.01443 2.01428 18.6709C1.48378 20.1059 1.02507 21.5162 0.674066 22.8525C-0.805751 28.5306 -0.398901 37.1527 7.29934 30.7016C8.18483 29.9574 9.07033 29.061 9.9319 28.0825C10.0236 27.9797 10.1154 27.8728 10.2071 27.7659C10.235 27.733 10.263 27.7001 10.2909 27.6713L10.2949 27.6754Z" fill="url(#paint3_linear_238_475)"/>
<path d="M36.796 10.9986C38.5473 10.9986 39.9671 9.53515 39.9671 7.72987C39.9671 5.92459 38.5473 4.46112 36.796 4.46112C35.0447 4.46112 33.625 5.92459 33.625 7.72987C33.625 9.53515 35.0447 10.9986 36.796 10.9986Z" fill="url(#paint4_linear_238_475)"/>
</g>
</g>
<defs>
<linearGradient id="paint0_linear_238_475" x1="-131" y1="-12" x2="1387" y2="642" gradientUnits="userSpaceOnUse">
<stop stop-color="#F8F9F9"/>
<stop offset="1" stop-color="#F3EDEB"/>
</linearGradient>
<linearGradient id="paint1_linear_238_475" x1="33.306" y1="14.4812" x2="42.2164" y2="32.4805" gradientUnits="userSpaceOnUse">
<stop stop-color="#9FC1FF"/>
<stop offset="0.54" stop-color="#5A50E4"/>
<stop offset="1" stop-color="#201A5B"/>
</linearGradient>
<linearGradient id="paint2_linear_238_475" x1="8.80712" y1="3.86492" x2="18.4599" y2="24.9334" gradientUnits="userSpaceOnUse">
<stop stop-color="#9FC1FF"/>
<stop offset="0.54" stop-color="#5A50E4"/>
<stop offset="1" stop-color="#201A5B"/>
</linearGradient>
<linearGradient id="paint3_linear_238_475" x1="7.83383" y1="9.48963" x2="7.83383" y2="41.215" gradientUnits="userSpaceOnUse">
<stop stop-color="#362868"/>
<stop offset="0.35" stop-color="#B216D5"/>
<stop offset="1" stop-color="#F62C7D"/>
</linearGradient>
<linearGradient id="paint4_linear_238_475" x1="36.796" y1="11.7428" x2="36.796" y2="3.61823" gradientUnits="userSpaceOnUse">
<stop stop-color="#362868"/>
<stop offset="0.35" stop-color="#B216D5"/>
<stop offset="1" stop-color="#F62C7D"/>
</linearGradient>
<clipPath id="clip0_238_475">
<rect width="1440" height="6759" fill="white" transform="translate(-131 -23)"/>
</clipPath>
<clipPath id="clip1_238_475">
<rect width="150" height="33" fill="white"/>
</clipPath>
</defs>
</svg>
